<svg width="20" height="17" viewBox="0 0 20 17" fill="none" xmlns="http://www.w3.org/2000/svg">
<path d="M20 2.64493C19.2149 2.98263 18.4295 3.19353 17.6448 3.27825C18.5312 2.74641 19.1307 1.99507 19.4431 1.02427C18.6323 1.50536 17.7671 1.83451 16.847 2.01188C16.0365 1.15081 15.0405 0.720093 13.8584 0.720093C12.7273 0.720093 11.7629 1.11892 10.9648 1.91674C10.1671 2.71452 9.76827 3.67893 9.76827 4.81012C9.76827 5.11398 9.80197 5.42645 9.86957 5.74721C8.19799 5.66281 6.62993 5.24283 5.16512 4.48727C3.7004 3.73163 2.45732 2.7249 1.43586 1.46709C1.06441 2.1001 0.878612 2.78823 0.878612 3.53111C0.878612 4.2318 1.04321 4.88192 1.37262 5.48131C1.70181 6.08061 2.14512 6.56597 2.70232 6.93747C2.04372 6.9121 1.42748 6.73899 0.853508 6.41818V6.46883C0.853508 7.45662 1.16376 8.32386 1.78417 9.07121C2.40467 9.81847 3.18772 10.2888 4.13316 10.4831C3.77855 10.5758 3.41969 10.6223 3.05675 10.6223C2.82035 10.6223 2.56283 10.6012 2.2843 10.5593C2.54598 11.378 3.02721 12.051 3.72781 12.5789C4.42855 13.1065 5.22211 13.3785 6.10856 13.3958C4.62282 14.5606 2.93021 15.143 1.03074 15.143C0.667669 15.143 0.338524 15.1265 0.0429993 15.0925C1.94251 16.3165 4.03611 16.9285 6.32393 16.9285C7.77597 16.9285 9.13938 16.6987 10.4137 16.2385C11.6887 15.7786 12.7776 15.1621 13.681 14.3895C14.5841 13.6171 15.3631 12.7286 16.0173 11.7241C16.6715 10.7194 17.1588 9.6706 17.4799 8.57738C17.8006 7.48394 17.961 6.38882 17.961 5.29117C17.961 5.05477 17.9568 4.87758 17.9483 4.75933C18.7505 4.17711 19.4343 3.47207 20 2.64493Z" fill="white"/>
</svg>
