<svg width="15" height="24" viewBox="0 0 15 24" fill="none" xmlns="http://www.w3.org/2000/svg">
<path d="M1.16138 12.8259C0.587305 13.9544 1.23911 14.4938 2.72628 15.4153C3.99056 16.1964 5.73714 16.482 6.85907 16.5963C6.39925 17.0383 8.50639 15.0117 2.43784 20.8489C1.15108 22.0823 3.22263 24.0611 4.50845 22.854L7.98943 19.4966C9.32208 20.7787 10.5995 22.0074 11.4704 22.8587C12.7572 24.0705 14.8278 22.1085 13.5551 20.8536C13.4596 20.7628 8.83791 16.3294 9.11979 16.6009C10.2558 16.4867 11.9761 16.1842 13.2254 15.42L13.2245 15.4191C14.7117 14.4929 15.3635 13.9544 14.7978 12.8259C14.456 12.1853 13.5345 11.6496 12.3077 12.5758C12.3077 12.5758 10.651 13.8448 7.97913 13.8448C5.30635 13.8448 3.65061 12.5758 3.65061 12.5758C2.42473 11.645 1.49946 12.1853 1.16138 12.8259Z" fill="white"/>
<path d="M7.97726 12.1339C11.2344 12.1339 13.8941 9.58843 13.8941 6.45489C13.8941 3.30824 11.2344 0.762817 7.97726 0.762817C4.71916 0.762817 2.05949 3.30824 2.05949 6.45489C2.05949 9.58843 4.71916 12.1339 7.97726 12.1339ZM7.97726 3.64631C9.57774 3.64631 10.8832 4.90217 10.8832 6.45489C10.8832 7.9945 9.57774 9.25036 7.97726 9.25036C6.37677 9.25036 5.07128 7.9945 5.07128 6.45489C5.07035 4.90123 6.37583 3.64631 7.97726 3.64631Z" fill="white"/>
</svg>
