<svg width="25" height="14" viewBox="0 0 25 14" fill="none" xmlns="http://www.w3.org/2000/svg">
<path fill-rule="evenodd" clip-rule="evenodd" d="M21.5255 8.63594C22.3216 9.4132 23.1619 10.1445 23.8759 11.0001C24.1913 11.3804 24.4899 11.7727 24.7184 12.214C25.0421 12.8413 24.7489 13.5316 24.1864 13.569L20.69 13.5675C19.7882 13.6423 19.0689 13.2793 18.464 12.6627C17.9799 12.1696 17.5316 11.6448 17.0661 11.1351C16.8753 10.9268 16.6756 10.7308 16.437 10.5758C15.9597 10.266 15.5454 10.3609 15.2726 10.8587C14.9948 11.365 14.9318 11.9256 14.9045 12.4899C14.867 13.3132 14.6182 13.5297 13.7912 13.5674C12.0237 13.6507 10.3463 13.3833 8.78811 12.4917C7.41432 11.7057 6.349 10.5961 5.42176 9.33987C3.61639 6.89374 2.23385 4.20584 0.991264 1.44263C0.711569 0.820082 0.916116 0.485899 1.60301 0.474071C2.74364 0.451913 3.8841 0.45349 5.02607 0.472494C5.48965 0.479275 5.79655 0.74517 5.97555 1.18313C6.59266 2.70051 7.34777 4.14417 8.29559 5.48233C8.548 5.83859 8.80538 6.19485 9.1719 6.44561C9.57736 6.72325 9.88608 6.63123 10.0768 6.17955C10.1979 5.89316 10.2509 5.58468 10.2781 5.27794C10.3685 4.22263 10.3804 3.16914 10.2219 2.11755C10.1246 1.46124 9.75494 1.03638 9.10006 0.912184C8.76588 0.848864 8.81563 0.724511 8.97744 0.533763C9.25848 0.204784 9.5228 0 10.0497 0H14.0012C14.6232 0.122776 14.7614 0.402235 14.8465 1.02818L14.8499 5.41743C14.8432 5.65975 14.971 6.37882 15.4074 6.53921C15.7568 6.65339 15.987 6.37393 16.1966 6.15243C17.1427 5.1483 17.8179 3.96163 18.4212 2.73284C18.6889 2.19254 18.919 1.63141 19.1421 1.07076C19.3074 0.654725 19.5667 0.45002 20.0354 0.459088L23.8384 0.462479C23.9512 0.462479 24.0653 0.464135 24.1745 0.482823C24.8154 0.592036 24.991 0.86771 24.793 1.4935C24.4812 2.47531 23.8744 3.2935 23.2811 4.11547C22.6469 4.99304 21.9686 5.84056 21.3396 6.72333C20.7618 7.52946 20.8077 7.93579 21.5255 8.63594Z" fill="white"/>
</svg>
