<svg width="20" height="20" viewBox="0 0 20 20" fill="none" xmlns="http://www.w3.org/2000/svg">
<path d="M10 14.1379C12.2853 14.1379 14.1379 12.2853 14.1379 9.99999C14.1379 7.71468 12.2853 5.86206 10 5.86206C7.71468 5.86206 5.86207 7.71468 5.86207 9.99999C5.86207 12.2853 7.71468 14.1379 10 14.1379Z" fill="white"/>
<path d="M14.9749 0.198748C12.4956 0.130854 7.53303 0.130854 5.05367 0.198748C3.76342 0.234119 2.30073 0.554836 1.38145 1.53527C0.426191 2.55439 0.0652127 3.78567 0.0285999 5.1631C-0.0357499 7.5807 0.0285999 14.837 0.0285999 14.837C0.0705223 16.2143 0.426191 17.4457 1.38145 18.4648C2.30073 19.4456 3.76342 19.766 5.05367 19.8013C7.53303 19.8692 12.4956 19.8692 14.9749 19.8013C16.2652 19.766 17.7279 19.4452 18.6472 18.4648C19.6024 17.4457 19.9634 16.2144 20 14.837V5.1631C19.9634 3.78567 19.6024 2.55439 18.6472 1.53527C17.7276 0.55452 16.2649 0.234119 14.9749 0.198748ZM10.014 16.4393C8.73852 16.4393 7.4917 16.0617 6.4312 15.3541C5.37069 14.6465 4.54413 13.6409 4.05603 12.4642C3.56793 11.2876 3.44022 9.9929 3.68905 8.74381C3.93788 7.49471 4.55208 6.34734 5.45396 5.44679C6.35585 4.54625 7.50492 3.93297 8.75588 3.68451C10.0068 3.43605 11.3035 3.56356 12.4818 4.05094C13.6602 4.53831 14.6674 5.36365 15.376 6.42258C16.0846 7.48151 16.4628 8.72648 16.4628 10C16.4628 11.7078 15.7834 13.3457 14.574 14.5533C13.3646 15.7609 11.7243 16.4393 10.014 16.4393ZM16.4902 4.88994C16.2352 4.88987 15.9858 4.81429 15.7738 4.67274C15.5617 4.53119 15.3965 4.33003 15.2989 4.0947C15.2013 3.85937 15.1758 3.60044 15.2256 3.35064C15.2754 3.10084 15.3983 2.8714 15.5787 2.69132C15.7591 2.51124 15.9889 2.38862 16.2391 2.33895C16.4892 2.28929 16.7486 2.31481 16.9842 2.41229C17.2199 2.50978 17.4213 2.67484 17.563 2.88662C17.7047 3.0984 17.7803 3.34738 17.7803 3.60208C17.7803 3.77123 17.747 3.93873 17.6821 4.095C17.6173 4.25127 17.5223 4.39325 17.4025 4.51284C17.2827 4.63244 17.1404 4.72729 16.9839 4.792C16.8274 4.8567 16.6596 4.88998 16.4902 4.88994Z" fill="white"/>
</svg>
